<svg xmlns="http://www.w3.org/2000/svg" width="32" height="32" viewBox="0 0 32 32"><g id="favicon-iseazy-32x32" transform="translate(-65 -69)"><rect id="Rect&#xE1;ngulo_3193" data-name="Rect&#xE1;ngulo 3193" width="32" height="32" transform="translate(65 69)" fill="none"></rect><g id="Grupo_11897" data-name="Grupo 11897" transform="translate(65.408 73)"><g id="Grupo_28" data-name="Grupo 28" transform="translate(0)"><path id="Trazado_53" data-name="Trazado 53" d="M261.785,597.993c-1.371,1.368-3.669,2.853-5.248,2.853a5.709,5.709,0,0,1-4.04-1.667l-.009-.009-2.421-2.416-4.284-4.274a4.582,4.582,0,0,0-6.47,0h0a4.557,4.557,0,0,0,0,6.455l7.519,7.5a4.582,4.582,0,0,0,6.47,0h0Z" transform="translate(-237.973 -584.164)" fill="#eb1c79"></path><path id="Trazado_54" data-name="Trazado 54" d="M679.842,362.775h0a4.582,4.582,0,0,0-6.47,0l-4,3.989-6.229,6.251,2.43,2.425a5.708,5.708,0,0,0,4.04,1.667,4.334,4.334,0,0,0,3.577-1.205l6.651-6.672A4.557,4.557,0,0,0,679.842,362.775Z" transform="translate(-649.999 -361.438)" fill="#eb1c79"></path></g></g></g></svg>